<svg width="2038" height="623" viewBox="0 0 2038 623" fill="none" xmlns="http://www.w3.org/2000/svg">
<path d="M81 49.6677C131 17.2189 263.5 -13.3321 371 49.6678" stroke="#CCC6C6" stroke-opacity="0.53" stroke-width="25" stroke-linecap="round"/>
<path d="M53 120.369C162 35.6679 294.5 43.2477 412.5 139.668" stroke="#CCC6C6" stroke-opacity="0.53" stroke-width="25" stroke-linecap="round"/>
<path d="M22.5 270.168C43.5 167.168 128.647 135.152 157 128.668" stroke="#CCC6C6" stroke-opacity="0.53" stroke-width="25" stroke-linecap="round"/>
<path d="M224 115.668C298 116.501 420.5 146.468 422.5 311.668" stroke="#CCC6C6" stroke-opacity="0.53" stroke-width="25" stroke-linecap="round"/>
<path d="M13 380.523C32.6667 368.356 74.6 326.523 85 256.523C95.4 186.523 171.667 166.335 203.5 167.168C239.667 163.668 314.5 171.523 340 218.668" stroke="#CCC6C6" stroke-opacity="0.53" stroke-width="25" stroke-linecap="round"/>
<path d="M363.5 265.168C380.3 314.768 378 329.668 378 375.168C378 375.168 365 431.668 391 483.668" stroke="#CCC6C6" stroke-opacity="0.53" stroke-width="25" stroke-linecap="round"/>
<path d="M26 457.536C118.8 416.336 105.5 327.168 144 265.168C182.5 203.168 288.5 200.668 314.5 265.168C347.501 347.035 286 394.713 348 518.168" stroke="#CCC6C6" stroke-opacity="0.53" stroke-width="25" stroke-linecap="round"/>
<path d="M75 527.228C110.5 491.061 191.5 390.728 191.5 318.228C191.5 245.728 278 249.668 278 318.228C278 386.787 298.5 402.168 162 587.668" stroke="#CCC6C6" stroke-opacity="0.53" stroke-width="25" stroke-linecap="round"/>
<path d="M229 373.668C234.167 366.001 235 345.168 235 319.668" stroke="#CCC6C6" stroke-opacity="0.53" stroke-width="25" stroke-linecap="round"/>
<path d="M113 559.168C137.833 531.668 200.2 450.868 219 409.668" stroke="#CCC6C6" stroke-opacity="0.53" stroke-width="25" stroke-linecap="round"/>
<path d="M229 585.168L282.901 494.126C285.087 490.433 290.603 491.029 291.95 495.103L309 546.668" stroke="#CCC6C6" stroke-opacity="0.53" stroke-width="25" stroke-linecap="round"/>
<path d="M552.058 510V409.7H567.358V510H552.058ZM572.458 510V409.7H587.758V510H572.458ZM592.858 510V409.7H597.958V510H592.858ZM618.358 510V409.7H623.458V510H618.358ZM628.558 510V409.7H633.658V510H628.558ZM650.618 510V409.7H655.718V510H650.618ZM660.818 510V409.7H676.118V510H660.818ZM681.218 510V409.7H686.318V510H681.218ZM691.418 510V409.7H706.718V510H691.418ZM727.118 510V409.7H732.218V510H727.118ZM749.178 510V409.7H754.278V510H749.178ZM759.378 510V409.7H774.678V510H759.378ZM779.778 510V409.7H784.878V510H779.778ZM789.978 510V409.7H805.278V510H789.978ZM825.678 510V409.7H830.778V510H825.678ZM847.738 510V409.7H852.838V510H847.738ZM857.938 510V409.7H873.238V510H857.938ZM878.338 510V409.7H893.638V510H878.338ZM914.038 510V409.7H919.138V510H914.038ZM924.238 510V409.7H929.338V510H924.238ZM946.298 510V409.7H951.398V510H946.298ZM956.498 510V409.7H971.798V510H956.498ZM976.898 510V409.7H981.998V510H976.898ZM1002.4 510V409.7H1017.7V510H1002.4ZM1022.8 510V409.7H1027.9V510H1022.8ZM1044.86 510V409.7H1049.96V510H1044.86ZM1055.06 510V409.7H1060.16V510H1055.06ZM1065.26 510V409.7H1080.56V510H1065.26ZM1085.66 510V409.7H1090.76V510H1085.66ZM1111.16 510V409.7H1126.46V510H1111.16ZM1143.42 510V409.7H1148.52V510H1143.42ZM1153.62 510V409.7H1158.72V510H1153.62ZM1163.82 510V409.7H1168.92V510H1163.82ZM1189.32 510V409.7H1204.62V510H1189.32ZM1209.72 510V409.7H1225.02V510H1209.72ZM1241.98 510V409.7H1257.28V510H1241.98ZM1262.38 510V409.7H1267.48V510H1262.38ZM1272.58 510V409.7H1287.88V510H1272.58ZM1308.28 510V409.7H1313.38V510H1308.28ZM1318.48 510V409.7H1323.58V510H1318.48ZM1340.54 510V409.7H1355.84V510H1340.54ZM1360.94 510V409.7H1366.04V510H1360.94ZM1371.14 510V409.7H1376.24V510H1371.14ZM1381.34 510V409.7H1396.64V510H1381.34ZM1417.04 510V409.7H1422.14V510H1417.04ZM1439.1 510V409.7H1444.2V510H1439.1ZM1449.3 510V409.7H1464.6V510H1449.3ZM1469.7 510V409.7H1485V510H1469.7ZM1490.1 510V409.7H1495.2V510H1490.1ZM1515.6 510V409.7H1520.7V510H1515.6ZM1537.66 510V409.7H1552.96V510H1537.66ZM1558.06 510V409.7H1563.16V510H1558.06ZM1568.26 510V409.7H1573.36V510H1568.26ZM1578.46 510V409.7H1593.76V510H1578.46ZM1614.16 510V409.7H1619.26V510H1614.16ZM1636.22 510V409.7H1641.32V510H1636.22ZM1646.42 510V409.7H1661.72V510H1646.42ZM1666.82 510V409.7H1671.92V510H1666.82ZM1692.32 510V409.7H1707.62V510H1692.32ZM1712.72 510V409.7H1717.82V510H1712.72ZM1734.78 510V409.7H1739.88V510H1734.78ZM1744.98 510V409.7H1750.08V510H1744.98ZM1755.18 510V409.7H1770.48V510H1755.18ZM1775.58 510V409.7H1780.68V510H1775.58ZM1801.08 510V409.7H1816.38V510H1801.08ZM1833.34 510V409.7H1838.44V510H1833.34ZM1843.54 510V409.7H1848.64V510H1843.54ZM1853.74 510V409.7H1869.04V510H1853.74ZM1874.14 510V409.7H1889.44V510H1874.14ZM1909.84 510V409.7H1914.94V510H1909.84Z" fill="url(#paint0_linear_14_112)" style="mix-blend-mode:darken"/>
<path d="M305.101 328.005C304.049 342.539 298.668 353.981 288.958 362.331C279.31 370.681 266.569 374.855 250.735 374.855C233.418 374.855 219.78 369.042 209.822 357.414C199.926 345.725 194.979 329.706 194.979 309.357V301.101C194.979 288.112 197.267 276.67 201.844 266.774C206.421 256.879 212.946 249.302 221.419 244.045C229.954 238.726 239.85 236.066 251.106 236.066C266.692 236.066 279.248 240.241 288.772 248.591C298.297 256.94 303.802 268.661 305.286 283.752H277.454C276.774 275.031 274.331 268.723 270.125 264.826C265.981 260.868 259.642 258.889 251.106 258.889C241.829 258.889 234.871 262.229 230.232 268.908C225.656 275.526 223.305 285.824 223.182 299.802V310.007C223.182 324.603 225.377 335.272 229.769 342.014C234.222 348.755 241.211 352.126 250.735 352.126C259.332 352.126 265.734 350.178 269.939 346.281C274.207 342.323 276.65 336.231 277.269 328.005H305.101ZM402.921 337.561C402.921 332.303 401.065 328.283 397.354 325.5C393.644 322.655 386.964 319.686 377.315 316.594C367.667 313.439 360.029 310.347 354.4 307.316C339.062 299.029 331.393 287.865 331.393 273.825C331.393 266.527 333.434 260.033 337.516 254.343C341.66 248.591 347.566 244.107 355.235 240.891C362.966 237.674 371.625 236.066 381.212 236.066C390.86 236.066 399.457 237.829 407.003 241.354C414.549 244.818 420.393 249.735 424.537 256.105C428.743 262.476 430.846 269.712 430.846 277.814H403.014C403.014 271.63 401.065 266.836 397.169 263.435C393.272 259.971 387.799 258.239 380.748 258.239C373.945 258.239 368.657 259.693 364.884 262.6C361.111 265.445 359.225 269.217 359.225 273.918C359.225 278.309 361.42 281.989 365.812 284.958C370.265 287.927 376.79 290.71 385.387 293.308C401.22 298.07 412.755 303.977 419.991 311.027C427.228 318.078 430.846 326.861 430.846 337.375C430.846 349.064 426.424 358.249 417.579 364.929C408.735 371.547 396.829 374.855 381.861 374.855C371.471 374.855 362.008 372.969 353.473 369.196C344.938 365.362 338.412 360.135 333.897 353.518C329.444 346.9 327.218 339.23 327.218 330.51H355.143C355.143 345.415 364.049 352.868 381.861 352.868C388.479 352.868 393.644 351.538 397.354 348.879C401.065 346.158 402.921 342.385 402.921 337.561ZM529.315 337.561C529.315 332.303 527.46 328.283 523.749 325.5C520.038 322.655 513.358 319.686 503.71 316.594C494.062 313.439 486.423 310.347 480.795 307.316C465.456 299.029 457.787 287.865 457.787 273.825C457.787 266.527 459.828 260.033 463.91 254.343C468.054 248.591 473.961 244.107 481.63 240.891C489.361 237.674 498.02 236.066 507.606 236.066C517.255 236.066 525.852 237.829 533.397 241.354C540.943 244.818 546.788 249.735 550.932 256.105C555.137 262.476 557.24 269.712 557.24 277.814H529.408C529.408 271.63 527.46 266.836 523.563 263.435C519.667 259.971 514.193 258.239 507.143 258.239C500.339 258.239 495.051 259.693 491.278 262.6C487.506 265.445 485.619 269.217 485.619 273.918C485.619 278.309 487.815 281.989 492.206 284.958C496.659 287.927 503.184 290.71 511.781 293.308C527.615 298.07 539.149 303.977 546.386 311.027C553.622 318.078 557.24 326.861 557.24 337.375C557.24 349.064 552.818 358.249 543.974 364.929C535.129 371.547 523.223 374.855 508.256 374.855C497.865 374.855 488.402 372.969 479.867 369.196C471.332 365.362 464.807 360.135 460.292 353.518C455.839 346.9 453.612 339.23 453.612 330.51H481.537C481.537 345.415 490.443 352.868 508.256 352.868C514.874 352.868 520.038 351.538 523.749 348.879C527.46 346.158 529.315 342.385 529.315 337.561ZM723.75 317.8H670.312V373H642.48V237.922H730.43V260.466H670.312V295.349H723.75V317.8ZM785.667 373H757.835V237.922H785.667V373ZM930.895 373H903.062L848.883 284.123V373H821.051V237.922H848.883L903.155 326.984V237.922H930.895V373ZM1071.58 355.93C1066.57 361.929 1059.48 366.599 1050.33 369.938C1041.18 373.216 1031.03 374.855 1019.9 374.855C1008.21 374.855 997.945 372.32 989.101 367.248C980.318 362.115 973.515 354.693 968.69 344.982C963.928 335.272 961.485 323.861 961.361 310.749V301.564C961.361 288.081 963.619 276.423 968.134 266.589C972.711 256.693 979.267 249.147 987.802 243.952C996.399 238.695 1006.45 236.066 1017.95 236.066C1033.97 236.066 1046.5 239.901 1055.53 247.57C1064.56 255.178 1069.91 266.28 1071.58 280.876H1044.49C1043.25 273.145 1040.5 267.486 1036.23 263.898C1032.02 260.311 1026.21 258.518 1018.79 258.518C1009.33 258.518 1002.12 262.074 997.172 269.187C992.224 276.299 989.719 286.875 989.657 300.915V309.543C989.657 323.706 992.348 334.406 997.729 341.643C1003.11 348.879 1011 352.497 1021.39 352.497C1031.84 352.497 1039.29 350.271 1043.74 345.817V322.531H1018.42V302.028H1071.58V355.93ZM1184.98 314.46H1131.54V350.642H1194.26V373H1103.71V237.922H1194.07V260.466H1131.54V292.658H1184.98V314.46ZM1270.09 323.552H1247.92V373H1220.09V237.922H1270.28C1286.24 237.922 1298.54 241.478 1307.2 248.591C1315.86 255.703 1320.19 265.754 1320.19 278.742C1320.19 287.958 1318.18 295.658 1314.16 301.843C1310.2 307.966 1304.17 312.852 1296.07 316.501L1325.29 371.701V373H1295.42L1270.09 323.552ZM1247.92 301.008H1270.37C1277.36 301.008 1282.77 299.245 1286.61 295.72C1290.44 292.132 1292.36 287.215 1292.36 280.969C1292.36 274.598 1290.53 269.589 1286.88 265.939C1283.3 262.29 1277.76 260.466 1270.28 260.466H1247.92V301.008ZM1378.77 325.407V373H1350.94V237.922H1403.63C1413.77 237.922 1422.68 239.777 1430.35 243.488C1438.08 247.199 1444.02 252.487 1448.16 259.353C1452.31 266.156 1454.38 273.918 1454.38 282.639C1454.38 295.874 1449.83 306.327 1440.74 313.996C1431.71 321.604 1419.19 325.407 1403.17 325.407H1378.77ZM1378.77 302.863H1403.63C1410.99 302.863 1416.59 301.132 1420.42 297.668C1424.32 294.204 1426.27 289.257 1426.27 282.824C1426.27 276.206 1424.32 270.856 1420.42 266.774C1416.53 262.692 1411.15 260.59 1404.28 260.466H1378.77V302.863ZM1533.09 323.552H1510.91V373H1483.08V237.922H1533.27C1549.23 237.922 1561.54 241.478 1570.2 248.591C1578.86 255.703 1583.18 265.754 1583.18 278.742C1583.18 287.958 1581.17 295.658 1577.15 301.843C1573.2 307.966 1567.17 312.852 1559.06 316.501L1588.29 371.701V373H1558.41L1533.09 323.552ZM1510.91 301.008H1533.37C1540.35 301.008 1545.77 299.245 1549.6 295.72C1553.44 292.132 1555.35 287.215 1555.35 280.969C1555.35 274.598 1553.53 269.589 1549.88 265.939C1546.29 262.29 1540.76 260.466 1533.27 260.466H1510.91V301.008ZM1643.52 373H1615.69V237.922H1643.52V373ZM1788.75 373H1760.92L1706.74 284.123V373H1678.91V237.922H1706.74L1761.01 326.984V237.922H1788.75V373ZM1921.46 260.466H1880.08V373H1852.25V260.466H1811.43V237.922H1921.46V260.466Z" fill="url(#paint1_linear_14_112)" style="mix-blend-mode:darken"/>
<defs>
<linearGradient id="paint0_linear_14_112" x1="1210.49" y1="264.327" x2="1224.49" y2="706.507" gradientUnits="userSpaceOnUse">
<stop stop-color="#ECB13F"/>
<stop offset="1" stop-color="#C825B8"/>
</linearGradient>
<linearGradient id="paint1_linear_14_112" x1="1113.14" y1="56" x2="1140.87" y2="563.972" gradientUnits="userSpaceOnUse">
<stop stop-color="#ECB13F"/>
<stop offset="1" stop-color="#C825B8"/>
</linearGradient>
</defs>
</svg>
